<?xml version="1.0" encoding="utf-8"?>
<!-- Generator: Adobe Illustrator 27.8.0, SVG Export Plug-In . SVG Version: 6.00 Build 0)  -->
<svg version="1.1" id="Livello_1" xmlns="http://www.w3.org/2000/svg" xmlns:xlink="http://www.w3.org/1999/xlink" x="0px" y="0px"
	 viewBox="0 0 595.3 238.1" style="enable-background:new 0 0 595.3 238.1;" xml:space="preserve">
<style type="text/css">
	.st0{fill:#E30613;}
</style>
<g>
	<path class="st0" d="M451.8,114.2c0,3.7-2.9,6.6-6.4,6.6h-0.2c-3.5,0-6.4-3-6.4-6.6V87.4c0-3.6,2.9-6.6,6.4-6.6h0.2
		c3.5,0,6.4,3,6.4,6.6V114.2z M452.8,114.2V87.4c0-4.1-3.3-7.5-7.3-7.5h-0.2c-4.1,0-7.3,3.4-7.3,7.5v26.8c0,4.1,3.3,7.5,7.3,7.5h0.2
		C449.5,121.7,452.7,118.3,452.8,114.2 M475.6,100.8c0,7-2,13.1-6.6,17.6c-4.7,4.4-12.2,7.3-23.6,7.3c-11.4,0-18.9-2.8-23.6-7.3
		c-4.7-4.4-6.6-10.6-6.6-17.6c0-6.9,2-13.1,6.6-17.6c4.7-4.4,12.2-7.3,23.6-7.3c11.4,0,18.9,2.8,23.6,7.3
		C473.6,87.7,475.6,93.9,475.6,100.8 M476.5,100.8c0-14.2-8.1-25.8-31.2-25.8c-23.1,0-31.1,11.5-31.1,25.8
		c0,14.2,8.1,25.8,31.1,25.8C468.4,126.6,476.5,115,476.5,100.8"/>
	<path class="st0" d="M403,80.8v40h6.9c0.2,0,0.4,0.2,0.4,0.4v3.1c0,0.2-0.2,0.4-0.4,0.4h-36.6c-0.2,0-0.4-0.2-0.4-0.4v-3.1
		c0-0.2,0.2-0.4,0.4-0.4h6.9v-40h-6.9c-0.2,0-0.4-0.2-0.4-0.4v-3.1c0-0.2,0.2-0.4,0.4-0.4h36.6c0.2,0,0.4,0.2,0.4,0.4v3.1
		c0,0.2-0.2,0.4-0.4,0.4H403z M403.9,119.9V81.7h5.9c0.7,0,1.3-0.6,1.3-1.3v-3.1c0-0.7-0.6-1.3-1.3-1.3h-36.6
		c-0.7,0-1.3,0.6-1.3,1.3v3.1c0,0.7,0.6,1.3,1.3,1.3h5.9v38.1h-5.9c-0.7,0-1.3,0.6-1.3,1.3v3.1c0,0.7,0.6,1.3,1.3,1.3h36.6
		c0.7,0,1.3-0.6,1.3-1.3v-3.1c0-0.7-0.6-1.3-1.3-1.3H403.9z"/>
	<path class="st0" d="M345.5,113.5c0,3.5-2.9,6.4-6.4,6.4h-6.6V81.7h6.6c3.5,0,6.4,2.9,6.4,6.4V113.5z M346.4,113.5V88.1
		c0-4-3.3-7.3-7.3-7.3h-7.5v40h7.5C343.1,120.8,346.4,117.5,346.4,113.5 M369.2,100.8c0,6.7-2,12.6-6.6,16.9c-4.7,4.3-12.2,7-23.6,7
		h-37.1c-0.2,0-0.4-0.2-0.4-0.4v-3.1c0-0.2,0.2-0.4,0.4-0.4h6.8v-40h-6.8c-0.2,0-0.4-0.2-0.4-0.4v-3.1c0-0.2,0.2-0.4,0.4-0.4H339
		c11.4,0,18.9,2.7,23.6,7C367.2,88.2,369.2,94.1,369.2,100.8 M370.1,100.8C370.1,87.1,362,76,339,76h-37.1c-0.7,0-1.3,0.6-1.3,1.3
		v3.1c0,0.7,0.6,1.3,1.3,1.3h5.9v38.1h-5.9c-0.7,0-1.3,0.6-1.3,1.3v3.1c0,0.7,0.6,1.3,1.3,1.3H339
		C362,125.7,370.1,114.5,370.1,100.8"/>
	<path class="st0" d="M260.4,106.6h-16.6l8.3-23.6L260.4,106.6z M242.5,107.5h19.2l-9.6-27.2L242.5,107.5z M296,124.3
		c0,0.2-0.2,0.4-0.4,0.4h-42.2c-0.2,0-0.4-0.2-0.4-0.4v-3.1c0-0.2,0.2-0.4,0.4-0.4h13l-3.3-9.4h-22l-3.3,9.4h7.2
		c0.2,0,0.4,0.2,0.4,0.4v3.1c0,0.2-0.2,0.4-0.4,0.4h-18c-0.2,0-0.4-0.2-0.4-0.4v-3.1c0-0.2,0.2-0.4,0.4-0.4h6.6L247.2,82l0.3-0.7
		l1.3-3.7l0,0c0.1-0.4,0.7-0.8,0.9-0.7h23.2c0.2,0,0.8,0.4,0.9,0.7l0.4,1.2l1.1,3.3l13.6,38.8h6.6c0.2,0,0.4,0.2,0.4,0.4V124.3z
		 M296.9,124.3v-3.1c0-0.7-0.6-1.3-1.3-1.3h-5.9l-13.4-38.1l-1.1-3.3l-0.4-1.2c-0.3-0.7-1.1-1.3-1.8-1.3h-23.2
		c-0.7,0-1.5,0.6-1.8,1.3l0,0.1l-1.3,3.7l-0.3,0.7l-13.4,38.1H227c-0.7,0-1.3,0.6-1.3,1.3v3.1c0,0.7,0.6,1.3,1.3,1.3h18
		c0.7,0,1.3-0.6,1.3-1.3v-3.1c0-0.7-0.6-1.3-1.3-1.3H239l2.7-7.6h20.7l2.7,7.6h-11.7c-0.7,0-1.3,0.6-1.3,1.3v3.1
		c0,0.7,0.6,1.3,1.3,1.3h42.2C296.3,125.7,296.9,125.1,296.9,124.3"/>
	<path class="st0" d="M230.5,93.4c0,0.2-0.1,0.4-0.3,0.4c0,0-0.1,0-0.1,0H227c-0.2,0-0.4-0.2-0.4-0.4v-4.7l0-0.4
		c0-4.1-3.2-7.4-7.2-7.5h-7.6v40h6.8c0.2,0,0.4,0.2,0.4,0.4v3.1c0,0.2-0.2,0.4-0.4,0.4h-36.5c-0.2,0-0.4-0.2-0.4-0.4v-3.1
		c0-0.2,0.2-0.4,0.4-0.4h6.8v-40h-7.6c-4,0.1-7.2,3.4-7.2,7.5v5.1c0,0.2-0.2,0.4-0.4,0.4h-3.1c0,0,0,0-0.1,0c-0.2,0-0.4-0.2-0.3-0.4
		V78l0,0v-0.7c0-0.2,0.2-0.4,0.4-0.4h59.6c0.2,0,0.4,0.2,0.4,0.4V78l0,0V93.4z M231.4,93.4V77.9l0,0v-0.6c0-0.7-0.6-1.3-1.3-1.3
		h-59.6c-0.7,0-1.3,0.6-1.3,1.3v0.6l0,0v15.5c0,0.6,0.5,1.2,1.1,1.3c0.1,0,0.2,0,0.3,0h3.1c0.7,0,1.3-0.6,1.3-1.3v-5.1
		c0-3.6,2.8-6.5,6.3-6.6h6.7v38.1h-5.9c-0.7,0-1.3,0.6-1.3,1.3v3.1c0,0.7,0.6,1.3,1.3,1.3h36.5c0.7,0,1.3-0.6,1.3-1.3v-3.1
		c0-0.7-0.6-1.3-1.3-1.3h-5.9V81.7h6.7c3.5,0.1,6.3,3,6.3,6.6l0,0.4v4.7c0,0.7,0.6,1.3,1.3,1.3h3.1c0.1,0,0.2,0,0.3,0
		C231,94.6,231.4,94.1,231.4,93.4"/>
	<path class="st0" d="M164.3,93.4c0,0.2-0.2,0.4-0.4,0.4h-3.1c-0.2,0-0.4-0.2-0.4-0.4v-3.2l0-0.1c-0.9-4.6-5.2-7.1-9-8.6
		c-3.8-1.4-7.4-1.8-7.4-1.8c-1.2-0.1-2.3-0.2-3.3-0.2c-3.3,0-4.8,0.7-5.2,0.9c-0.2,0.1-0.7,0.3-1.2,0.7c-0.6,0.5-1.3,1.5-1.3,2.9
		c0,1.4,0.7,2.4,1.5,3c0.8,0.6,1.6,1,2.2,1.2l21.2,8.4c8.8,3.4,9.4,10.9,9.4,12.9c0,0.3,0,0.5,0,0.5l0,0v0c0,7.6-4.1,11.3-8.9,13.4
		c-4.8,2-10.3,2.2-12.7,2.2c-7.2,0-12.8-1.5-16.7-3c-1.9-0.8-3.4-1.5-4.5-2.1c-1.1-0.6-1.5-1-1.8-1.1l-1.4-0.8v5.7
		c0,0.2-0.2,0.4-0.4,0.4h-3.1c-0.2,0-0.4-0.2-0.4-0.4v-16.5c0-0.2,0.2-0.4,0.4-0.4h3.1c0.2,0,0.4,0.2,0.4,0.4v0.6l0,0
		c0.5,4.5,3.5,7.7,6.7,9.9c3.2,2.2,6.7,3.3,8.6,3.7c2,0.4,3.8,0.6,5.5,0.6c2.9,0,5.2-0.5,6.7-1.2c1.8-0.8,2.8-2,2.8-3.5
		c0-1.5-1-2.4-1.6-2.8c-0.6-0.4-1.5-0.8-2.3-1.1c-0.8-0.3-1.5-0.5-1.5-0.5c-5.6-1.8-10.4-3.6-13.6-5c-3.3-1.4-5.2-2.3-5.2-2.3
		c-9-4.4-9.2-12.4-9.2-13.3c0,0,0,0,0,0l0,0v0c0-8.2,4.3-12.2,9.1-14.4c4.7-2.2,9.8-2.4,11.4-2.4l0.1,0l0.4,0c6,0,10.7,1.2,13.9,2.4
		c1.6,0.6,2.8,1.2,3.6,1.6c0.4,0.2,0.7,0.4,0.9,0.5c0.2,0.1,0.3,0.2,0.3,0.2l2.7,1.9v-5.3c0-0.2,0.2-0.4,0.4-0.4h3.1
		c0.2,0,0.4,0.2,0.4,0.4V93.4z M165.2,93.4V77.3c0-0.7-0.6-1.3-1.3-1.3h-3.1c-0.7,0-1.3,0.6-1.3,1.3v3.5l-1.2-0.9
		c0,0-6.9-4.8-19.2-4.9l-0.4,0c-3,0-21.5,0.7-21.5,17.7c0,0-0.3,9.3,9.7,14.2c0,0,7.6,3.8,18.9,7.4c0,0,2.7,0.9,3.5,1.5
		c0.6,0.5,1.3,0.9,1.3,2c0,1-0.6,1.9-2.3,2.6c-1.3,0.6-3.5,1.1-6.3,1.1c-1.6,0-3.3-0.2-5.3-0.6c-3.6-0.8-13.6-4.5-14.5-12.8v-0.5
		c0-0.7-0.6-1.3-1.3-1.3h-3.1c-0.7,0-1.3,0.6-1.3,1.3v16.5c0,0.7,0.6,1.3,1.3,1.3h3.1c0.7,0,1.3-0.6,1.3-1.3v-4.1
		c0.4,0.2,8.8,6.3,23.4,6.3c4.8,0,22.5-0.5,22.5-16.5c0,0,0.9-10.2-9.9-14.4l-21.2-8.4c-1-0.4-3.1-1.2-3.1-3.3c0-2.1,2-2.8,2-2.8
		s1.3-0.8,4.8-0.8c0.9,0,2,0.1,3.2,0.2c0,0,14,1.5,15.6,9.7v3.1c0,0.7,0.6,1.3,1.3,1.3h3.1C164.6,94.8,165.2,94.2,165.2,93.4"/>
	<path class="st0" d="M502.2,102.2h-11v42.3h11v-26.5c0-5.3,10.3-5.9,10.3-5.9v-10.8c-5.7,0-9.1,2.7-10.3,3.9V102.2z M199,102.2h-11
		v42.3h11V102.2z M94.7,97.8l0.4,0l-1.9-11c-15.3,0.8-27.5,13.5-27.5,29c0,15.5,12.2,28.2,27.5,29l1.9-11c-0.1,0-0.3,0-0.4,0
		c-10,0-18-8.1-18-18C76.6,105.9,84.7,97.8,94.7,97.8 M128.1,123.4c0,6.1-4.9,11-11,11c-6.1,0-11-4.9-11-11c0-6.1,4.9-11,11-11
		C123.2,112.4,128.1,117.3,128.1,123.4 M139.1,123.4c0-12.1-9.8-22-22-22c-12.1,0-22,9.8-22,22c0,12.1,9.8,22,22,22
		C129.3,145.4,139.1,135.5,139.1,123.4 M161.6,112.2v-10.8c-5.7,0-9.1,2.7-10.3,3.9v-3h-11v42.3h11v-26.5
		C151.4,112.8,161.6,112.2,161.6,112.2 M185.4,112.2v-10.8c-5.7,0-9.1,2.7-10.3,3.9v-3h-11v42.3h11v-26.5
		C175.2,112.8,185.4,112.2,185.4,112.2 M199.9,93.8c0-3.5-2.9-6.4-6.4-6.4c-3.5,0-6.4,2.9-6.4,6.4c0,3.5,2.9,6.4,6.4,6.4
		C197,100.2,199.9,97.3,199.9,93.8 M218.1,113.2l-5.6,15.4c-0.8-1.5-1.3-3.3-1.3-5.2C211.2,118.7,214.1,114.8,218.1,113.2
		 M222.2,134.4l-0.1,0l4-11l0.1-0.1l3-8.4l3.9-10.6c-3.2-1.8-6.9-2.9-10.9-2.9c-12.1,0-22,9.8-22,22c0,12.2,9.8,22,22,22
		c3.9,0,7.6-1,10.9-2.9l-3.9-10.6C227.3,133.4,224.9,134.4,222.2,134.4 M256.9,112.2v-10.8c-5.7,0-9.1,2.7-10.3,3.9v-3h-11v42.3h11
		v-26.5C246.6,112.8,256.9,112.2,256.9,112.2 M273.4,113.2l-5.6,15.4c-0.8-1.5-1.3-3.3-1.3-5.2C266.5,118.7,269.4,114.8,273.4,113.2
		 M277.5,134.4l-0.1,0l4-11l0.1-0.1l3-8.4l3.9-10.6c-3.2-1.8-6.9-2.9-10.8-2.9c-12.1,0-22,9.8-22,22c0,12.2,9.8,22,22,22
		c3.9,0,7.6-1,10.8-2.9l-3.9-10.6C282.6,133.4,280.1,134.4,277.5,134.4 M310.1,134.2c0,3.5-2.8,6.3-6.3,6.3c-3.5,0-6.3-2.8-6.3-6.3
		c0-3.5,2.8-6.3,6.3-6.3C307.3,127.8,310.1,130.7,310.1,134.2 M310.1,144.9h4.9v-38.1h-4.9v18c-1.8-1.2-4-2-6.3-2
		c-6.2,0-11.2,5-11.2,11.2s5,11.2,11.2,11.2c2.4,0,4.5-0.7,6.3-2V144.9z M327.9,127.8l-4.2,11.4c-1.6-1.2-2.6-3-2.6-5.1
		c0-3.5,2.8-6.3,6.3-6.3C327.6,127.8,327.7,127.8,327.9,127.8 M332.3,138.3c-0.9,1.1-2.3,1.9-3.8,2.1l2.3-6.3l3.3-9.1
		c-1.8-1.3-4.1-2.1-6.6-2.1c-6.2,0-11.2,5-11.2,11.2s5,11.2,11.2,11.2c2.5,0,4.7-0.8,6.6-2.1L332.3,138.3z M335.3,144.9h4.9v-38.1
		h-4.9V144.9z M341.4,144.9h4.9v-38.1h-4.9V144.9z M365.1,134.2c0,3.5-2.8,6.3-6.3,6.3s-6.3-2.8-6.3-6.3c0-3.5,2.8-6.3,6.3-6.3
		S365.1,130.7,365.1,134.2 M370,134.2c0-6.2-5-11.2-11.2-11.2s-11.2,5-11.2,11.2s5,11.2,11.2,11.2S370,140.3,370,134.2 M390.6,105.8
		c-1.2-1.2-2.7-3.2-2.7-4.6c0-0.7,0.5-1.6,0.9-2c0.6-0.6,1.3-1,2.4-1c0.2,0,0.4,0,0.6,0c0.6,0.1,1.1,0.4,1.8,0.7l1.4,0.9l6.1-8.5
		c0,0-1.1-1-2.6-2c-1.5-0.9-4-1.7-6.1-1.9c-0.4,0-0.9-0.1-1.3-0.1c-5.1,0-10.1,2.6-12.8,7.2c-1.1,1.9-1.7,3.9-1.9,6
		c-0.2,1.9-0.3,3,0.4,5.2c0.1,0.3,0.1,0.4,0.5,1.1c0.3,0.7,1.5,2.1,1.5,2.1l3.6,4l10.2,11.9c1,1.1,1.4,2.5,1.4,3.8
		c0,1.7-0.7,3.4-2.2,4.6c-1.1,0.9-2.5,1.4-3.9,1.4c-1.8,0-3.4-0.7-4.7-2.1l-2.1-2.4l-8.3,6.8c0,0,0.5,0.9,1.9,2.5
		c3.3,4,8.2,6,13.1,6h0c3.9,0,7.8-1.3,11-3.9c4-3.3,6.1-8.1,6.1-12.8c0-3.8-1.3-7.6-4-10.7L395,111l-3.9-4.5L390.6,105.8z
		 M433.7,123.4c0,6.1-4.9,11-11,11c-2,0-3.9-0.7-5.5-1.6v-18.7c1.6-0.9,3.5-1.7,5.5-1.7C428.8,112.4,433.7,117.3,433.7,123.4
		 M444.7,123.4c0-12.1-9.8-22-22-22c-1.9,0-3.7,0.5-5.5,0.9v-0.9h-11v61.7h11v-18.5c1.8,0.4,3.6,0.8,5.5,0.8
		C434.9,145.4,444.7,135.5,444.7,123.4 M468,112.4c6.1,0,11,4.9,11,11c0,6.1-4.9,11-11,11c-6.1,0-11-4.9-11-11
		C457,117.3,461.9,112.4,468,112.4 M468,101.4c-12.1,0-22,9.8-22,22c0,12.1,9.8,22,22,22c12.1,0,22-9.8,22-22
		C490,111.2,480.1,101.4,468,101.4 M529.6,99.1v-5.5H526v-6.2l-11,3.9v2.4h-53.3l-4.8,5.5H515v45.4h11V99.1H529.6z"/>
</g>
</svg>
